<svg width="16" height="16" viewBox="0 0 16 16" fill="none" xmlns="http://www.w3.org/2000/svg">
  <path d="M16 3.038c-.588.261-1.22.438-1.885.518a3.293 3.293 0 001.444-1.816 6.576 6.576 0 01-2.085.797A3.28 3.28 0 007.88 4.773a9.325 9.325 0 01-6.766-3.429 3.281 3.281 0 001.015 4.384A3.267 3.267 0 01.64 5.78v.041a3.28 3.28 0 002.633 3.218 3.274 3.274 0 01-.865.115 3.285 3.285 0 01-.617-.059 3.281 3.281 0 003.067 2.281A6.585 6.585 0 010 13.538a9.29 9.29 0 005.034 1.475c6.042 0 9.341-5.004 9.341-9.341 0-.142-.003-.284-.01-.425A6.673 6.673 0 0016 3.038z" fill="white"/>
</svg>
