<svg width="16" height="16" viewBox="0 0 16 16" fill="none" xmlns="http://www.w3.org/2000/svg">
  <path fill-rule="evenodd" clip-rule="evenodd" d="M8 0C3.58 0 0 3.58 0 8C0 11.54 2.29 14.35 5.47 15.34C5.88 15.41 6.03 15.14 6.03 14.9C6.03 14.68 6.02 14.09 6.02 13.45C4 13.87 3.48 12.92 3.48 12.92C3.12 12.1 2.67 11.87 2.67 11.87C2.03 11.42 2.75 11.43 2.75 11.43C3.49 11.49 3.85 12.27 3.85 12.27C4.54 13.43 5.69 13.1 6.14 12.9C6.2 12.44 6.38 12.13 6.58 11.95C4.79 11.77 2.92 11.06 2.92 7.88C2.92 6.99 3.26 6.3 3.81 5.77C3.73 5.58 3.44 4.73 3.89 3.55C3.89 3.55 4.54 3.36 6.01 4.48C6.63 4.32 7.31 4.25 8 4.25C8.69 4.25 9.37 4.32 9.99 4.48C11.46 3.36 12.11 3.55 12.11 3.55C12.56 4.73 12.27 5.58 12.19 5.77C12.74 6.3 13.08 6.99 13.08 7.88C13.08 11.07 11.21 11.77 9.42 11.94C9.67 12.17 9.9 12.62 9.9 13.32C9.9 14.35 9.89 14.96 9.89 14.9C9.89 15.14 10.03 15.41 10.47 15.34C13.71 14.34 16 11.54 16 8C16 3.58 12.42 0 8 0Z" fill="white"/>
</svg>
